# xmcd
#
# Track frame offsets:
#	150
#	12385
#	27114
#	40712
#	53393
#	67361
#	79172
#	90494
#	102872
#	116111
#	129839
#	142822
#	155317
#	168547
#	181498
#	194383
#	207211
#	221002
#	235042
#	247105
#	259792
#	272383
#	284548
#
# Disc length: 3897 seconds
#
# Revision: 1
# Processed by: cddbd v1.5.1PL0 Copyright (c) Steve Scherf et al.
# Submitted via: dBpowerAMP V4.0
#
DISCID=400f3717
DTITLE=Variés - L'âme de l'Auvergne
DYEAR=1998
DGENRE=Folklore
TTITLE0=Henri Momboisse - Lo marianno fiolerbo (bourrée)
TTITLE1=Martin Cayla - Lo mourolliado (bourrée)
TTITLE2=Martin Cayla - L'aigo de roso (scottisch)
TTITLE3=Henri Momboisse - Lo grondo (valse)
TTITLE4=Jean Ségurel - La fille du fermier (valse)
TTITLE5=Martin Cayla - Polka piquée
TTITLE6=Ernest Jaillet - bourrée lozérienne
TTITLE7=Adrien Bras - Lo glaoudo (bourrée)
TTITLE8=Martin Cayla - Le  pas du loup (scottisch)
TTITLE9=Martin Cayla - L'aoure de la combo torto (valse)
TTITLE10=Martin Cayla - Préto mou mé (valse)
TTITLE11=Antoine Bouscatel - Regret et marche nuptiale (mélodie)
TTITLE12=Martin Cayla - Les garçons de la montagne (bourrée)
TTITLE13=Fernand Constantin - Fiou de lono (bourrée)
TTITLE14=Achille Marc - Lo Bolontinou (polka)
TTITLE15=Géraud Sudre - Valso oubergnato (valse)
TTITLE16=Henri Momboisse - Vous reviendrez (valse)
TTITLE17=Martin Cayla - La demenon lo nostro nobio (marche)
TTITLE18=Ernest Jaillet - Le brise pied (scottisch)
TTITLE19=Antoine Bouscatel - La bororiairo - Flour de ginesto (bourrées)
TTITLE20=Antoine Bouscatel - Cantalise - Mignonette (bourrées)
TTITLE21=Jean Pradal - Si vous saviez jeune fille (bourrée)
TTITLE22=Joseph Aigueperse - L'escloupetto (bourrée)
EXTD=Compilation accordéon " l'âme de l'auvergne"  Sony 1998
EXTT0=
EXTT1=
EXTT2=
EXTT3=
EXTT4=
EXTT5=
EXTT6=
EXTT7=
EXTT8=
EXTT9=
EXTT10=
EXTT11=
EXTT12=
EXTT13=
EXTT14=
EXTT15=
EXTT16=
EXTT17=
EXTT18=
EXTT19=
EXTT20=
EXTT21=
EXTT22=
PLAYORDER=
